<svg xmlns="http://www.w3.org/2000/svg" width="90.615" height="81.553" viewBox="0 0 90.615 81.553">
  <path id="Icon_material-business-center" data-name="Icon material-business-center" d="M39.246,63.4V58.869H7.576L7.531,76.992a9.03,9.03,0,0,0,9.062,9.062h63.43a9.03,9.03,0,0,0,9.062-9.062V58.869H57.369V63.4ZM84.553,22.623H66.385V13.561L57.324,4.5H39.2l-9.061,9.061v9.061H12.061A9.088,9.088,0,0,0,3,31.684V45.277a9.03,9.03,0,0,0,9.061,9.062H39.246V45.277H57.369v9.062H84.553a9.088,9.088,0,0,0,9.062-9.062V31.684A9.088,9.088,0,0,0,84.553,22.623Zm-27.185,0H39.246V13.561H57.369Z" transform="translate(-3 -4.5)"/>
</svg>
