<svg xmlns="http://www.w3.org/2000/svg" width="90.707" height="72.565" viewBox="0 0 90.707 72.565">
  <path id="Icon_awesome-city" data-name="Icon awesome-city" d="M87.305,27.212H68.03V3.4a3.4,3.4,0,0,0-3.4-3.4H44.22a3.4,3.4,0,0,0-3.4,3.4v10.2H31.747V2.268A2.267,2.267,0,0,0,29.48,0H27.212a2.267,2.267,0,0,0-2.268,2.268V13.606H15.874V2.268A2.267,2.267,0,0,0,13.606,0H11.338A2.267,2.267,0,0,0,9.071,2.268V13.606H3.4a3.4,3.4,0,0,0-3.4,3.4V68.03a4.536,4.536,0,0,0,4.535,4.535H86.171a4.536,4.536,0,0,0,4.535-4.535V30.614A3.4,3.4,0,0,0,87.305,27.212ZM18.141,57.259a1.7,1.7,0,0,1-1.7,1.7H10.771a1.7,1.7,0,0,1-1.7-1.7V51.589a1.7,1.7,0,0,1,1.7-1.7h5.669a1.7,1.7,0,0,1,1.7,1.7Zm0-13.606a1.7,1.7,0,0,1-1.7,1.7H10.771a1.7,1.7,0,0,1-1.7-1.7V37.983a1.7,1.7,0,0,1,1.7-1.7h5.669a1.7,1.7,0,0,1,1.7,1.7Zm0-13.606a1.7,1.7,0,0,1-1.7,1.7H10.771a1.7,1.7,0,0,1-1.7-1.7V24.377a1.7,1.7,0,0,1,1.7-1.7h5.669a1.7,1.7,0,0,1,1.7,1.7ZM36.283,57.259a1.7,1.7,0,0,1-1.7,1.7H28.913a1.7,1.7,0,0,1-1.7-1.7V51.589a1.7,1.7,0,0,1,1.7-1.7h5.669a1.7,1.7,0,0,1,1.7,1.7Zm0-13.606a1.7,1.7,0,0,1-1.7,1.7H28.913a1.7,1.7,0,0,1-1.7-1.7V37.983a1.7,1.7,0,0,1,1.7-1.7h5.669a1.7,1.7,0,0,1,1.7,1.7Zm0-13.606a1.7,1.7,0,0,1-1.7,1.7H28.913a1.7,1.7,0,0,1-1.7-1.7V24.377a1.7,1.7,0,0,1,1.7-1.7h5.669a1.7,1.7,0,0,1,1.7,1.7ZM58.959,43.653a1.7,1.7,0,0,1-1.7,1.7H51.589a1.7,1.7,0,0,1-1.7-1.7V37.983a1.7,1.7,0,0,1,1.7-1.7h5.669a1.7,1.7,0,0,1,1.7,1.7Zm0-13.606a1.7,1.7,0,0,1-1.7,1.7H51.589a1.7,1.7,0,0,1-1.7-1.7V24.377a1.7,1.7,0,0,1,1.7-1.7h5.669a1.7,1.7,0,0,1,1.7,1.7Zm0-13.606a1.7,1.7,0,0,1-1.7,1.7H51.589a1.7,1.7,0,0,1-1.7-1.7V10.771a1.7,1.7,0,0,1,1.7-1.7h5.669a1.7,1.7,0,0,1,1.7,1.7ZM81.636,57.259a1.7,1.7,0,0,1-1.7,1.7H74.266a1.7,1.7,0,0,1-1.7-1.7V51.589a1.7,1.7,0,0,1,1.7-1.7h5.669a1.7,1.7,0,0,1,1.7,1.7Zm0-13.606a1.7,1.7,0,0,1-1.7,1.7H74.266a1.7,1.7,0,0,1-1.7-1.7V37.983a1.7,1.7,0,0,1,1.7-1.7h5.669a1.7,1.7,0,0,1,1.7,1.7Z"/>
</svg>
