<svg xmlns="http://www.w3.org/2000/svg" width="85.029" height="68" viewBox="0 0 85.029 68">
  <g id="Group_14" data-name="Group 14" transform="translate(-427.24 -498.134)">
    <path id="Path_29" data-name="Path 29" d="M427.279,527.94h38.236V498.186h8.51V527.9h38.262v8.528H474.06v29.744h-8.528V536.45H427.279Z" transform="translate(-0.035 -0.046)"/>
    <path id="Path_30" data-name="Path 30" d="M448.88,552.638H427.434V535.659l21.5,16.869Z" transform="translate(-0.172 -33.27)"/>
    <path id="Path_31" data-name="Path 31" d="M1007.745,552.566H986.109l21.635-16.975Z" transform="translate(-495.491 -33.209)"/>
    <path id="Path_32" data-name="Path 32" d="M427.24,927.741V910.758h21.645Z" transform="translate(0 -365.831)"/>
    <path id="Path_33" data-name="Path 33" d="M1007.825,910.792v16.979l-21.643-16.979Z" transform="translate(-495.556 -365.861)"/>
    <path id="Path_34" data-name="Path 34" d="M498.733,965.081l21.618-16.959v16.959Z" transform="translate(-63.385 -398.958)"/>
    <path id="Path_35" data-name="Path 35" d="M914.924,515.114v-16.98h21.443l.07.1Z" transform="translate(-432.379 0)"/>
    <path id="Path_36" data-name="Path 36" d="M936.442,965.032H914.8V948.055Z" transform="translate(-432.27 -398.898)"/>
    <path id="Path_37" data-name="Path 37" d="M520.36,498.337V515.3l-21.617-16.959Z" transform="translate(-63.394 -0.18)"/>
  </g>
</svg>
