<svg xmlns="http://www.w3.org/2000/svg" width="93.283" height="55.99" viewBox="0 0 93.283 55.99">
  <path id="Icon_awesome-handshake" data-name="Icon awesome-handshake" d="M63.36,4.5H50.839a4.662,4.662,0,0,0-3.148,1.224L33.363,18.842c-.015.015-.029.044-.044.058a5.8,5.8,0,0,0-.306,8.162,6.079,6.079,0,0,0,8.177.394c.015-.015.044-.015.058-.029L52.894,16.758a2.332,2.332,0,1,1,3.148,3.44l-3.8,3.484L73.46,40.91a10.5,10.5,0,0,1,1.151,1.122v-28.2L66.654,5.87A4.631,4.631,0,0,0,63.36,4.5Zm15.931,9.357V46.492a4.659,4.659,0,0,0,4.664,4.664h9.328v-37.3Zm7,32.635a2.332,2.332,0,1,1,2.332-2.332A2.339,2.339,0,0,1,86.287,46.492ZM0,51.142H9.328a4.659,4.659,0,0,0,4.664-4.664V13.857H0Zm7-9.314A2.332,2.332,0,1,1,4.664,44.16,2.339,2.339,0,0,1,7,41.828Zm63.535,2.711L48.77,26.873,44.4,30.882A10.491,10.491,0,0,1,30.215,15.417L42.138,4.5H29.923a4.656,4.656,0,0,0-3.294,1.37l-7.973,7.958V46.463h2.667L34.515,58.4a9.326,9.326,0,0,0,13.118-1.356l.029-.029,2.609,2.259a5.417,5.417,0,0,0,7.623-.787l4.577-5.626.787.641a4.657,4.657,0,0,0,6.559-.685L71.2,51.112a4.673,4.673,0,0,0-.67-6.574Z" transform="translate(0 -4.5)"/>
</svg>
