<svg xmlns="http://www.w3.org/2000/svg" width="30.906" height="30.906" viewBox="0 0 30.906 30.906">
  <path id="Icon_awesome-info-circle" data-name="Icon awesome-info-circle" d="M16.015.563A15.453,15.453,0,1,0,31.468,16.015,15.455,15.455,0,0,0,16.015.563Zm0,6.854A2.617,2.617,0,1,1,13.4,10.034,2.617,2.617,0,0,1,16.015,7.417ZM19.5,23.243a.748.748,0,0,1-.748.748H13.274a.748.748,0,0,1-.748-.748v-1.5A.748.748,0,0,1,13.274,21h.748V17.012h-.748a.748.748,0,0,1-.748-.748v-1.5a.748.748,0,0,1,.748-.748h3.988a.748.748,0,0,1,.748.748V21h.748a.748.748,0,0,1,.748.748Z" transform="translate(-0.563 -0.563)" fill="#fff"/>
</svg>
