<svg xmlns="http://www.w3.org/2000/svg" width="267.107" height="76.399" viewBox="0 0 267.107 76.399">
  <g id="Logo_x5F_Horizontální" transform="translate(0.007 -0.061)">
    <g id="Group_1" data-name="Group 1" transform="translate(59.997 35.433)">
      <path id="Path_1" data-name="Path 1" d="M188.7,125.55V112.1h5.31c4.2,0,7.123,2.671,7.123,6.741s-2.925,6.709-7.123,6.709Zm9.508-6.709a3.921,3.921,0,0,0-4.2-4.2h-2.448v8.395h2.448A4.021,4.021,0,0,0,198.208,118.841Z" transform="translate(-188.7 -111.846)" stroke="#000" stroke-width="1.417"/>
      <path id="Path_2" data-name="Path 2" d="M232.283,125.55v-5.5L227.1,112.1h3.275l3.339,5.406,3.307-5.406H240.3l-5.151,7.949v5.5Z" transform="translate(-214.89 -111.846)" stroke="#000" stroke-width="1.417"/>
      <path id="Path_3" data-name="Path 3" d="M272.5,125.55V112.1h7.059c2.544,0,3.879,1.622,3.879,3.434a2.988,2.988,0,0,1-2.321,3.084,3.263,3.263,0,0,1,2.576,3.307c0,2-1.336,3.625-3.911,3.625H272.5Zm8.045-9.508a1.429,1.429,0,0,0-1.558-1.463h-3.593v2.925h3.593A1.464,1.464,0,0,0,280.545,116.043Zm.254,5.469a1.56,1.56,0,0,0-1.749-1.558h-3.689v3.116h3.689C280.163,123.07,280.8,122.5,280.8,121.512Z" transform="translate(-245.853 -111.846)" stroke="#000" stroke-width="1.417"/>
      <path id="Path_4" data-name="Path 4" d="M312.5,118.364a7.028,7.028,0,1,1,7.027,6.964A6.765,6.765,0,0,1,312.5,118.364Zm11.1,0a4.1,4.1,0,0,0-4.1-4.42c-2.48,0-4.07,1.908-4.07,4.42s1.59,4.42,4.07,4.42A4.1,4.1,0,0,0,323.6,118.364Z" transform="translate(-273.134 -111.368)" stroke="#000" stroke-width="1.417"/>
      <path id="Path_5" data-name="Path 5" d="M367.016,125.55l-.827-2.289h-5.755l-.859,2.289H356.3l5.183-13.45h3.625l5.183,13.45Zm-3.689-10.589-2.1,5.787h4.2Z" transform="translate(-303.007 -111.846)" stroke="#000" stroke-width="1.417"/>
      <path id="Path_6" data-name="Path 6" d="M413.961,125.55V113.594H409.7V112.1h10.207v1.494h-4.261V125.55Z" transform="translate(-339.427 -111.846)" fill="#bb8141"/>
      <path id="Path_7" data-name="Path 7" d="M456.59,125.55l-3.4-5.342h-2.7v5.342H448.8V112.1h5.406a3.924,3.924,0,0,1,4.229,4.038,3.738,3.738,0,0,1-3.5,3.911l3.625,5.469H456.59Zm.127-9.38a2.5,2.5,0,0,0-2.7-2.544h-3.53v5.119h3.53A2.54,2.54,0,0,0,456.718,116.17Z" transform="translate(-366.094 -111.846)" fill="#bb8141"/>
      <path id="Path_8" data-name="Path 8" d="M494.138,125.55l-1.176-2.989h-6.678l-1.177,2.989H483.2l5.406-13.45h2.067l5.406,13.45Zm-4.547-11.733-2.83,7.25h5.692Z" transform="translate(-389.556 -111.846)" fill="#bb8141"/>
      <path id="Path_9" data-name="Path 9" d="M538.539,125.55l-7.854-10.716V125.55H529V112.1h1.717l7.727,10.493V112.1h1.685v13.45Z" transform="translate(-420.792 -111.846)" fill="#bb8141"/>
      <path id="Path_10" data-name="Path 10" d="M571.5,123.1l1.018-1.3a5.5,5.5,0,0,0,4.2,1.94c2.385,0,3.148-1.3,3.148-2.353,0-3.466-7.949-1.526-7.949-6.328,0-2.226,1.971-3.752,4.642-3.752a6.311,6.311,0,0,1,4.77,1.908l-1.017,1.24a5.142,5.142,0,0,0-3.879-1.622c-1.59,0-2.766.859-2.766,2.13,0,3.021,7.949,1.3,7.949,6.3,0,1.94-1.335,3.943-4.96,3.943A6.328,6.328,0,0,1,571.5,123.1Z" transform="translate(-449.778 -111.3)" fill="#bb8141"/>
    </g>
    <g id="Group_2" data-name="Group 2" transform="translate(42.572 11.425)">
      <path id="Path_11" data-name="Path 11" d="M354.036,96.756a8.6,8.6,0,0,1-5.6,2.035H133.9s161.692-1.145,157.049-17.775c-.032-2.067-.127-4.1,0-6.169a3,3,0,0,1,.922-2.194c1.113-.541,1.049-1.3,1.049-2.194a32.05,32.05,0,0,0-.032-3.911,28.869,28.869,0,0,0-.922-3.53,6.965,6.965,0,0,1-.382-1.558c-.032-4.96-.032-9.921,0-14.913a2.6,2.6,0,0,1,.731-1.812,3.314,3.314,0,0,0,1.113-2.766c-.064-2.035-.032-4.1-.032-6.169,1.971.477,2.607,1.208,2.639,3.053a25.557,25.557,0,0,1-.032,2.7,3.769,3.769,0,0,0,1.208,3.371,2.325,2.325,0,0,1,.572,1.59c.032,4.96.032,9.921,0,14.913a2.562,2.562,0,0,1-.636,1.685,3.654,3.654,0,0,0-1.145,3.243c.1,1.717.032,3.434.032,5.151l.477.1a3.647,3.647,0,0,0,.35-.922,18.031,18.031,0,0,0,0-3.466c-.318-1.971.795-3.021,2.385-4.2v3.593c0,3.212-.032,6.423.032,9.635.032,2.1.795,2.957,2.735,3.18-1.685-.89-1.781-2.353-1.781-3.911-.1-10.112-.159-20.255-.286-30.367,0-1.145.572-1.336,1.463-1.4a14.875,14.875,0,0,1,9.73,2.989,18.532,18.532,0,0,1,8.013,11.225c-4.007-5.946-8.935-10.493-16.63-11.193-.064.636-.127,1.049-.127,1.494,0,4.865-.032,9.73,0,14.6a4.55,4.55,0,0,0,3.975,4.452,34.523,34.523,0,0,0,3.625.127c5.215.127,10.43.223,15.613.382,4.261.127,6.964,2.162,7.79,6.455.509,2.671.986,5.374,1.463,8.077a2.956,2.956,0,0,1-.413.127c-.541-1.081-1.049-2.162-1.59-3.243-3.848-7.663-14.786-7.6-18.983-3.053a12.856,12.856,0,0,0-2.035,2.957,4.107,4.107,0,0,1-4.007,2.607,49.568,49.568,0,0,0-10.811,1.145,26.052,26.052,0,0,1-3.434.445c.318,1.24,1.208,1.145,1.94,1.113,3.434-.223,6.9-.541,10.334-.795,1.177-.1,2.385-.159,3.689-.223.254,3.053.032,6.073,1.4,8.776.223-.064.191-.032.413-.1,0-.827-.064-1.653,0-2.48a72.625,72.625,0,0,1,.7-7.886,4.72,4.72,0,0,1,4.388-4.1,5.449,5.449,0,0,1,5.374,2.639,12.806,12.806,0,0,1,1.749,3.784c.318,1.24.954,1.526,2.1,1.59,2.353.1,4.706.318,7.027.541a2.991,2.991,0,0,1,2.957,2.353,1.853,1.853,0,0,0,2.067,1.526c4.356,0,8.713.032,13.069.032a3.181,3.181,0,0,0,3.275-2.353c.636-1.844,1.971-2.671,4.166-2.7.191,3.975,1.018,7.981-3.148,10.938a5.852,5.852,0,0,0-.7.541ZM312.222,86.8a29.97,29.97,0,0,0,1.081,4.77c1.177,3.021,3.848,3.307,5.914.795,2.1-2.544,1.94-8.585-.286-11-1.876-2.035-4.324-1.781-5.437.731A31.976,31.976,0,0,0,312.222,86.8Zm-4.9,4.325a1.549,1.549,0,0,1,.032-.382c-2.862-.223-5.724-.382-8.585-.668-2.417-.223-2.989-1.049-2.48-3.466,2.385-.286,4.8-.541,7.218-.827,0-.127-.032-.254-.032-.382-2.957.191-5.883.35-8.808.509a3.9,3.9,0,0,0,3.148,4.674C300.966,90.874,304.145,90.969,307.325,91.128Zm26.805-.477c-.477-.986-.7-2.258-1.177-2.353a55.713,55.713,0,0,0-6.137-.668C328.439,90.492,330.983,90.683,334.131,90.651ZM295.846,57.359V44.767C294.988,46.484,295.083,56.31,295.846,57.359Zm32.72,37.68c-1.622-1.049-2.989-1.94-4.356-2.83-.541.922-1.177,1.94-2,3.307C324.464,95.357,326.436,95.2,328.566,95.039Zm28.586-7.854c-1.971.6-1.876,2.448-2.766,3.784C356.707,90.842,357.438,89.824,357.152,87.185Z" transform="translate(-133.9 -35.8)"/>
      <path id="Path_12" data-name="Path 12" d="M716.9,91.6c4.642.191,8.935.318,13.228.509,2.512.1,4.992.286,7.5.382a5.082,5.082,0,0,1,4.07,2.448,18.017,18.017,0,0,1,2.671,8.363c.032.286-.6.922-.922.922-7.155-.159-14.309-.318-21.464-.6a2.544,2.544,0,0,1-1.844-1.208C719,98.977,718.045,95.448,716.9,91.6Zm21.336,3.116c-.064-.127-.1-.286-.159-.413H720.43c.6,2.289,1.208,4.452,1.749,6.423,2.894-1.145,5.5-2.226,8.172-3.148,1.654-.572,3.4-.795,5.056-1.367A21.983,21.983,0,0,0,738.236,94.716Z" transform="translate(-531.519 -73.857)"/>
      <path id="Path_13" data-name="Path 13" d="M783.287,148.681c-.191,2.735-.413,5.469-.572,8.2a2.118,2.118,0,0,1-2.035,2.162,37.654,37.654,0,0,1-12.528-.1,1.962,1.962,0,0,1-1.685-1.812c-.668-4.9-1.336-9.794-2.035-14.691-.127-.954.1-1.685,1.177-1.908a61.56,61.56,0,0,1,8.236-1.558c2.035-.1,4.1.668,6.169,1.145,3.148.731,2.989.1,3.021,3.752.032,1.59,0,3.212,0,4.8A.348.348,0,0,1,783.287,148.681Zm-1.24,4.833v-.35H766.911v.35Zm-.445,4.261v-.286h-13.9v.286Zm-16.026-14.468v.318h16.408v-.318Zm-.127-1.463v.318h16.5v-.318Zm.509,4.293v.318h16.058v-.318Zm-.064-1.463v.286h16.09v-.286Zm.318,2.8c1.4.859,15.167.731,15.962,0Zm15.9,3.243v-.286H766.5v.286Zm-.064-1.463v-.318H766.5v.318Zm.032,2.862v-.35H766.784v.35Zm-.1,2.8V154.6H767.1v.318Zm-.223,1.431v-.318H767.388v.318Z" transform="translate(-563.914 -106.167)"/>
      <path id="Path_14" data-name="Path 14" d="M701.826,64.31c-3.593,0-7.091.032-10.589,0-2.448-.032-4.9-.254-7.377-.223a4.57,4.57,0,0,1-4.324-2.353A15.633,15.633,0,0,0,671.3,54.8c-2-.668-4.134-1.049-6.2-1.558a1.669,1.669,0,0,1,.636-.191c8.84-.382,17.648-.35,26.042,3.116A20.458,20.458,0,0,1,701.826,64.31Z" transform="translate(-496.19 -47.457)"/>
      <path id="Path_15" data-name="Path 15" d="M684.572,93.539c-4.674-.223-9.317-.35-13.927-.731a2.711,2.711,0,0,1-1.876-1.781c-.159-4.611-.1-9.253-.1-13.927C676.75,79.93,683.3,86.1,684.572,93.539Z" transform="translate(-498.619 -63.968)"/>
      <path id="Path_16" data-name="Path 16" d="M734.257,172.431c-1.208-.1-2.289-.159-3.371-.286a1.87,1.87,0,0,1-.859-.509c-1.176-1.113-2.417-2.194-3.529-3.4-1.177-1.24-2.226-2.607-3.5-4.134C729.9,164.068,734.161,167.47,734.257,172.431Z" transform="translate(-535.679 -123.303)"/>
      <path id="Path_17" data-name="Path 17" d="M755.3,134.566c5.342,0,10.525-.064,15.708.064.954.032,1.908.922,2.735,1.717a21.792,21.792,0,0,1-2.862-.6c-2.957-1.018-5.819-.223-8.681.382C758.575,136.887,758.575,136.887,755.3,134.566Z" transform="translate(-557.709 -103.15)"/>
      <path id="Path_18" data-name="Path 18" d="M827,173.66V167.3c1.749.413,3.4,2.353,3.275,3.752C830.148,172.229,828.558,173.532,827,173.66Z" transform="translate(-606.61 -125.486)"/>
      <path id="Path_19" data-name="Path 19" d="M704.4,191.968c1.971-2.162,2-4.611.223-7.568.541.223,1.24.318,1.59.731,1.208,1.431,1.24,4.77.064,6.36-.35.477-1.049.668-1.622.986C704.559,192.286,704.5,192.127,704.4,191.968Z" transform="translate(-522.994 -137.149)"/>
      <path id="Path_20" data-name="Path 20" d="M703.9,195.044V192.5h.477v2.607A2.455,2.455,0,0,0,703.9,195.044Z" transform="translate(-522.653 -142.673)"/>
    </g>
    <g id="Group_3" data-name="Group 3" transform="translate(-0.007 0.061)">
      <path id="Path_21" data-name="Path 21" d="M239.7,21.028S145.1,4.271,136.673,3.857c0,0-63.309-11.8-76.569,6.2l-1.3,2.607s5.247-6.932,23.626-7.091c0,0,11.32-1.685,51.258,1.685s71.831,9.094,71.831,9.094Z" transform="translate(-40.101 -0.061)" fill="#bb8141"/>
      <path id="Path_22" data-name="Path 22" d="M320.633,46.116l-47.7-8.013s-13.228-2.321-18.92,2.925A110.739,110.739,0,0,1,244,49.327l8.458-4.77s7.536-5.851,16.789-4.611,24.007,2.766,24.007,2.766Z" transform="translate(-166.411 -25.657)" fill="#bb8141"/>
      <path id="Path_23" data-name="Path 23" d="M15.989,54.725l.763-3.625s-9.476,1.526-10.684,2-4.1.922-5.787,6.773c0,0-2,9.094,4.547,10.239l1.4-13.7Z" transform="translate(0.007 -34.871)" fill="#bb8141"/>
      <path id="Path_24" data-name="Path 24" d="M40.172,123.636s-.191-10.684.795-15.136c0,0-1.812,3.879-2.067,16.694,0,0,19.651.254,28.2-3.148C67.1,122.078,47.072,125.226,40.172,123.636Z" transform="translate(-26.528 -74.019)" fill="#bb8141"/>
      <path id="Path_25" data-name="Path 25" d="M82.21,33.263C73.084,31.323,70.6,35.33,70.6,35.33c-.6-.509-7.5.413-7.5.413-4.325,0-6.582,6.455-6.582,6.455C54.259,51.737,60.3,53.391,60.3,53.391l2.576-14.373,5.342-.191c-1.94,3.5-5.946,32.752-5.946,32.752C44.211,76.6,26.023,75.617,26.023,75.617c-.668-3.561.445-11.32.445-11.32-1.081,1.685-3.657,18.729-3.657,18.729-.7,9.476.159,11.32.159,11.32s-1.145,4.229,10.684,4.388c11.861.159,42.45-2,42.45-2a18.529,18.529,0,0,1-10.525-2.576c-2.512-.477-1.844-6.169-1.844-6.169a338.552,338.552,0,0,1,4.1-33.769c3.084-17.33,5.247-17.87,5.247-17.87C74.515,33.581,84.276,34.6,84.276,34.6c13.132,1.94,19.3-.731,19.3-.731S91.336,35.2,82.21,33.263ZM54.7,77.589l-2.258,3.4L30.6,82.009l-2.353-2.766ZM33.114,95.682l-.954-3.339-7.854-3.4,9.031,3.021Zm-.127-9.253-1.3-2.162L50.7,83.217l-1.717,2.289ZM51.429,89.7l-1.24,4.324L49.871,89.2l11.7-3.911Z" transform="translate(-15.368 -22.344)" fill="#bb8141"/>
    </g>
  </g>
</svg>
