<svg xmlns="http://www.w3.org/2000/svg" width="129.663" height="85.82" viewBox="0 0 129.663 85.82">
  <g id="Logo_Vertikální" transform="translate(-113.431 -242.65)">
    <g id="Group_49" data-name="Group 49" transform="translate(113.431 242.65)">
      <path id="Path_70" data-name="Path 70" d="M117.826,303.9a8.72,8.72,0,0,0,5.62,2.055c20.548,0,28.891-.011,50.728-.011,46.917,0-9.825,0,37.092.007h9.208s-43.919-1.139-39.263-17.866c.045-2.065.116-4.135,0-6.193-.044-.775-.38-1.927-.93-2.2-1.113-.543-1.055-1.309-1.047-2.218a34.682,34.682,0,0,1,.033-3.927,26.727,26.727,0,0,1,.922-3.535,6.535,6.535,0,0,0,.376-1.57c.029-4.99.044-9.981-.014-14.97a2.8,2.8,0,0,0-.739-1.837,3.328,3.328,0,0,1-1.119-2.792c.075-2.057.021-4.119.021-6.2-1.994.476-2.635,1.225-2.662,3.07a25.1,25.1,0,0,0,.022,2.72,3.77,3.77,0,0,1-1.207,3.377,2.416,2.416,0,0,0-.565,1.609q-.06,7.485.009,14.97a2.591,2.591,0,0,0,.647,1.708,3.792,3.792,0,0,1,1.165,3.246c-.089,1.724-.022,3.456-.022,5.184l-.483.082a3.273,3.273,0,0,1-.337-.932,18.028,18.028,0,0,1,0-3.472c.312-1.982-.79-3.044-2.4-4.2v3.616c0,3.226.048,6.452-.018,9.676-.042,2.1-.811,2.965-2.756,3.19,1.678-.882,1.774-2.377,1.787-3.946q.122-15.263.3-30.525c.014-1.136-.579-1.33-1.476-1.4a14.911,14.911,0,0,0-9.764,3,18.712,18.712,0,0,0-8.048,11.282c4.039-5.966,8.98-10.544,16.71-11.259.056.623.129,1.06.13,1.5.009,4.887.039,9.775-.006,14.662a4.563,4.563,0,0,1-4,4.479c-1.2.15-2.431.109-3.649.138-5.234.125-10.469.221-15.7.373-4.276.124-7.008,2.184-7.825,6.495-.511,2.7-.979,5.4-1.467,8.1l.426.141c.534-1.087,1.061-2.177,1.6-3.26,3.851-7.7,14.85-7.63,19.063-3.076a12.716,12.716,0,0,1,2.032,2.961,4.141,4.141,0,0,0,4.027,2.63,50.409,50.409,0,0,1,10.848,1.138,23.059,23.059,0,0,0,3.465.445c-.335,1.24-1.2,1.164-1.953,1.112-3.466-.239-6.928-.529-10.392-.789-1.193-.089-2.388-.146-3.691-.224-.256,3.076-.032,6.11-1.391,8.833l-.414-.1c0-.836.049-1.675-.01-2.507a76.137,76.137,0,0,0-.69-7.915,4.761,4.761,0,0,0-4.414-4.135,5.522,5.522,0,0,0-5.4,2.666,12.972,12.972,0,0,0-1.758,3.8c-.327,1.257-.959,1.535-2.1,1.587-2.359.108-4.715.323-7.068.539a3.014,3.014,0,0,0-2.966,2.355,1.867,1.867,0,0,1-2.064,1.542c-4.379,0-8.759.043-13.138.034a3.209,3.209,0,0,1-3.3-2.369c-.626-1.855-1.994-2.669-4.177-2.716-.195,4.009-1.023,8.025,3.163,11,.244.174.486.35.714.542Zm42.009-10a32.761,32.761,0,0,1-1.081,4.788c-1.17,3.026-3.869,3.335-5.947.807-2.1-2.558-1.942-8.62.293-11.053,1.879-2.045,4.335-1.795,5.455.729A30.539,30.539,0,0,1,159.835,293.9Zm4.908,4.341-.019-.379c2.878-.215,5.758-.4,8.632-.656,2.421-.22,2.993-1.061,2.5-3.492l-7.244-.828.033-.371,8.841.526a3.916,3.916,0,0,1-3.16,4.7C171.14,298,167.939,298.09,164.743,298.246Zm-26.919-.456c.478-1,.715-2.254,1.192-2.353a57.384,57.384,0,0,1,6.153-.685C143.549,297.628,140.972,297.815,137.824,297.79Zm38.463-33.448V251.681C177.144,253.39,177.07,263.271,176.287,264.342ZM143.4,302.191l4.379-2.842,2.01,3.315ZM114.69,294.31c1.988.6,1.891,2.466,2.771,3.8C115.14,297.961,114.406,296.935,114.69,294.31Z" transform="translate(-113.431 -242.65)"/>
      <path id="Path_71" data-name="Path 71" d="M217.955,360.125c-4.668.18-8.988.335-13.306.518-2.514.107-5.024.276-7.538.389a5.02,5.02,0,0,0-4.09,2.472,17.818,17.818,0,0,0-2.674,8.387c-.029.293.6.94.912.934,7.194-.145,14.388-.327,21.578-.611a2.458,2.458,0,0,0,1.857-1.228C215.852,367.519,216.82,363.988,217.955,360.125Zm-21.416,3.122.145-.428h17.738l-1.749,6.452c-2.906-1.135-5.527-2.241-8.207-3.177-1.652-.577-3.423-.808-5.086-1.359A18.935,18.935,0,0,1,196.538,363.247Z" transform="translate(-178.656 -342.271)"/>
      <path id="Path_72" data-name="Path 72" d="M147.451,469.159c.2,2.752.413,5.5.588,8.258a2.117,2.117,0,0,0,2.058,2.157,38.162,38.162,0,0,0,12.6-.093,1.909,1.909,0,0,0,1.683-1.835q1.027-7.385,2.034-14.774c.133-.967-.1-1.7-1.185-1.916-2.753-.553-5.488-1.421-8.262-1.567-2.037-.107-4.136.678-6.186,1.156-3.148.734-2.991.09-3.034,3.78-.019,1.607,0,3.215,0,4.823Zm1.242,4.87q0-.168,0-.336h15.219q0,.168,0,.336Zm.449,4.267.006-.293H163.1q0,.147-.005.293Zm16.1-14.522q0,.158,0,.316H148.761q0-.158,0-.316Zm.115-1.462-.016.311H148.759q0-.156,0-.311Zm-.5,4.309-.005.325H148.7q0-.162,0-.325Zm.077-1.478,0,.28H148.75q0-.14,0-.28Zm-.321,2.814c-1.415.855-15.233.727-16.024,0Zm-15.993,3.257,0-.3h15.7l-.007.3Zm.063-1.472.008-.31h15.625v.31Zm-.026,2.892-.011-.342h15.378q0,.171,0,.342Zm.1,2.8q0-.158,0-.315H163.7q0,.158,0,.315Zm.218,1.428q-.007-.162-.014-.324H163.4v.324Z" transform="translate(-142.28 -426.44)"/>
      <path id="Path_73" data-name="Path 73" d="M238.239,290.258c3.608,0,7.119.034,10.629-.012,2.467-.032,4.934-.267,7.4-.234a4.579,4.579,0,0,0,4.339-2.358,15.68,15.68,0,0,1,8.264-6.961c2.023-.665,4.14-1.042,6.221-1.55a2.443,2.443,0,0,0-.625-.188c-8.89-.389-17.731-.347-26.155,3.139A20.254,20.254,0,0,0,238.239,290.258Z" transform="translate(-219.27 -273.298)"/>
      <path id="Path_74" data-name="Path 74" d="M368.316,346.236c4.7-.216,9.361-.356,14.006-.722a2.674,2.674,0,0,0,1.87-1.789c.162-4.644.087-9.3.087-14C376.168,332.542,369.6,338.748,368.316,346.236Z" transform="translate(-329.578 -316.494)"/>
      <path id="Path_75" data-name="Path 75" d="M284.922,520.8c1.208-.095,2.3-.148,3.388-.286a1.75,1.75,0,0,0,.852-.508c1.2-1.117,2.425-2.209,3.541-3.4,1.169-1.252,2.222-2.612,3.525-4.16C289.274,512.423,285,515.825,284.922,520.8Z" transform="translate(-258.858 -471.439)"/>
      <path id="Path_76" data-name="Path 76" d="M188.015,450.361c-5.361,0-10.57-.076-15.773.068-.972.027-1.92.933-2.763,1.723a23.741,23.741,0,0,0,2.885-.617c2.975-1.018,5.844-.227,8.729.387C184.72,452.694,184.719,452.7,188.015,450.361Z" transform="translate(-160.961 -418.776)"/>
      <path id="Path_77" data-name="Path 77" d="M122.234,525.4v-6.4c-1.77.428-3.422,2.358-3.284,3.776C119.069,523.989,120.662,525.3,122.234,525.4Z" transform="translate(-118.104 -476.993)"/>
      <path id="Path_78" data-name="Path 78" d="M383.072,562.64c-1.97-2.176-2-4.637-.226-7.61-.539.236-1.248.33-1.587.734-1.215,1.447-1.256,4.8-.073,6.4.348.47,1.066.665,1.615.986Z" transform="translate(-339.76 -507.553)"/>
      <path id="Path_79" data-name="Path 79" d="M396.652,574.655v-2.571l-.487.005v2.6Z" transform="translate(-353.194 -522.016)"/>
    </g>
    <g id="Group_50" data-name="Group 50" transform="translate(182.307 244.985)">
      <path id="Path_80" data-name="Path 80" d="M566.957,263.6a204.735,204.735,0,0,1,26.354-1.364c14.82.124,19.036,5.7,19.036,5.7l-1.054-2.108c-8.8-11.968-31.656-6.975-44.436-5.722l-.071.27a5.283,5.283,0,0,0,.171,3.219Z" transform="translate(-566.612 -258.012)" fill="#af6c2f"/>
      <path id="Path_81" data-name="Path 81" d="M878.351,345.443l-.62-2.914s7.627,1.24,8.619,1.612,3.287.744,4.651,5.457c0,0,1.612,7.317-3.658,8.247l-1.116-11.037Z" transform="translate(-830.446 -329.684)" fill="#af6c2f"/>
      <path id="Path_82" data-name="Path 82" d="M773.161,451.612s.155-8.619-.651-12.185c0,0,1.457,3.131,1.674,13.456,0,0-15.843.217-22.726-2.542C751.458,450.341,767.611,452.883,773.161,451.612Z" transform="translate(-723.364 -411.855)" fill="#af6c2f"/>
      <path id="Path_83" data-name="Path 83" d="M572.37,310.781c4.5-.96,11.669-.753,13.569,0,2.06.815,2.574,1.511,3.315,1.541,1.8.073,4.557.443,4.557.443,3.473,0,5.292,5.209,5.292,5.209,1.819,7.689-3.059,9.012-3.059,9.012l-2.067-11.575-4.3-.165c1.571,2.811,4.8,26.374,4.8,26.374a102.344,102.344,0,0,0,29.206,3.245c.537-2.873-.351-9.115-.351-9.115.868,1.364,2.956,15.089,2.956,15.089.558,7.627-.124,9.115-.124,9.115s.93,3.411-8.619,3.535-34.273-.234-34.273-.234a11.868,11.868,0,0,0,8.47-3.157c1.378-1.378,1.579-5.248,1.579-5.248s-.827-13.228-3.307-27.2c-1.929-10.868-3.452-13.5-3.852-14.261a3.508,3.508,0,0,0-.489-.7c-1.765-1.891-13.3-.829-13.3-.829v-1.075ZM600.591,346.5l1.819,2.728,17.61.827,1.9-2.232Zm17.388,14.577.766-2.681,6.318-2.744-7.276,2.425Zm.119-7.466,1.054-1.736-15.316-.847,1.385,1.84Zm-14.861,2.646.992,3.472.248-3.886-9.425-3.142Z" transform="translate(-571.495 -302.215)" fill="#af6c2f"/>
    </g>
    <g id="Group_48" data-name="Group 48" transform="translate(116.969 315.31)">
      <path id="Path_60" data-name="Path 60" d="M136.711,734.294V722.055h4.183a6.121,6.121,0,1,1,0,12.239Zm8.881-6.11a4.475,4.475,0,0,0-4.7-4.771h-2.66v9.523h2.66A4.5,4.5,0,0,0,145.592,728.183Z" transform="translate(-136.711 -721.853)" fill="#af6c2f"/>
      <path id="Path_61" data-name="Path 61" d="M212.889,734.294v-5.174l-4.826-7.064h1.78l3.8,5.688,3.8-5.688h1.78l-4.807,7.064v5.174Z" transform="translate(-197.219 -721.853)" fill="#af6c2f"/>
      <path id="Path_62" data-name="Path 62" d="M291.969,734.294V722.055h5.45c2.129,0,3.431,1.284,3.431,3.119a2.782,2.782,0,0,1-2.147,2.807,3.055,3.055,0,0,1,2.385,3.009c0,1.963-1.3,3.3-3.541,3.3Zm7.3-8.9a1.924,1.924,0,0,0-2.11-1.982h-3.67v3.945h3.67A1.9,1.9,0,0,0,299.272,725.394Zm.238,5.431a2.073,2.073,0,0,0-2.257-2.11h-3.761v4.22h3.761A2.018,2.018,0,0,0,299.51,730.826Z" transform="translate(-268.372 -721.853)" fill="#af6c2f"/>
      <path id="Path_63" data-name="Path 63" d="M364.648,727.057a6.087,6.087,0,1,1,6.073,6.33A5.977,5.977,0,0,1,364.648,727.057Zm10.587,0c0-2.862-1.78-4.973-4.514-4.973-2.752,0-4.5,2.11-4.5,4.973,0,2.844,1.743,4.972,4.5,4.972C373.455,732.03,375.235,729.9,375.235,727.057Z" transform="translate(-330.005 -720.727)" fill="#af6c2f"/>
      <path id="Path_64" data-name="Path 64" d="M457.469,734.294l-1.083-2.734h-6.092l-1.083,2.734h-1.743l4.936-12.239h1.89l4.917,12.239Zm-4.128-10.679-2.587,6.605h5.193Z" transform="translate(-400.239 -721.853)" fill="#af6c2f"/>
      <path id="Path_65" data-name="Path 65" d="M547.077,734.294v-9.945H543.5v-2.294h9.761v2.294H549.7v9.945Z" transform="translate(-481.674 -721.853)" stroke="#161615" stroke-width="1"/>
      <path id="Path_66" data-name="Path 66" d="M625.629,734.294l-2.4-4.349h-1.908v4.349h-2.605V722.055h5.725a3.811,3.811,0,0,1,4.11,3.945,3.512,3.512,0,0,1-2.679,3.633l2.752,4.661Zm.257-8.293a1.662,1.662,0,0,0-1.835-1.652h-2.734v3.3h2.734A1.662,1.662,0,0,0,625.886,726Z" transform="translate(-545.456 -721.853)" stroke="#161615" stroke-width="1"/>
      <path id="Path_67" data-name="Path 67" d="M697.511,734.294l-.752-2.073h-5.247l-.771,2.073h-2.973l4.734-12.239h3.266l4.716,12.239Zm-3.376-9.633-1.908,5.266h3.816Z" transform="translate(-604.016 -721.853)" stroke="#161615" stroke-width="1"/>
      <path id="Path_68" data-name="Path 68" d="M787.357,734.294l-5.835-7.982v7.982h-2.606V722.055H781.6l5.67,7.688v-7.688h2.606v12.239Z" transform="translate(-681.312 -721.853)" stroke="#161615" stroke-width="1"/>
      <path id="Path_69" data-name="Path 69" d="M861.495,731.545l1.413-1.982a5.366,5.366,0,0,0,3.89,1.651c1.431,0,2.128-.661,2.128-1.358,0-2.165-7.046-.679-7.046-5.285,0-2.037,1.761-3.725,4.642-3.725a6.808,6.808,0,0,1,4.771,1.706l-1.45,1.908a5.258,5.258,0,0,0-3.56-1.34c-1.119,0-1.743.5-1.743,1.229,0,1.945,7.028.642,7.028,5.211,0,2.239-1.6,3.927-4.9,3.927A6.975,6.975,0,0,1,861.495,731.545Z" transform="translate(-751.34 -720.83)" stroke="#161615" stroke-width="1"/>
    </g>
  </g>
</svg>
