<svg xmlns="http://www.w3.org/2000/svg" width="1362.667" height="348.766" viewBox="0 0 1362.667 348.766">
  <g id="Group_80" data-name="Group 80" transform="translate(-1308.426 -201.863)">
    <g id="Dyboatrans_Logo_GN1.0-03" transform="matrix(0.995, 0.105, -0.105, 0.995, 1334.622, 161)">
      <path id="Path_26" data-name="Path 26" d="M0,201.827C129.358,113.142,292.722,25.465,453.341,46.082c295.243,46.275,591.271,86.78,889.763,105.828A9103.476,9103.476,0,0,0,435.862.2C271.713-4.956,113.615,90.9,0,201.827Z" transform="translate(0 48.783)" fill="#fff"/>
      <path id="Path_27" data-name="Path 27" d="M0,8.589C375.749-44.8,951.781,168.255,952.9,166.407" transform="translate(390.931 0)"/>
      <path id="Path_28" data-name="Path 28" d="M0,192.986C128.462,126.6,252.833,52.648,395.749,24.412c20.224-3.81,40.841-6.443,62.41-9.02C301.294-41.247,95.016,67.55,0,192.986Z" transform="translate(15.687 118.352)"/>
    </g>
  </g>
</svg>
