<svg xmlns="http://www.w3.org/2000/svg" width="35.056" height="26.292" viewBox="0 0 35.056 26.292">
  <path id="caravan-solid" d="M0,36.382A4.381,4.381,0,0,1,4.382,32h18.4a8.761,8.761,0,0,1,8.764,8.764v8.764H33.3a1.753,1.753,0,0,1,0,3.506H15.775a5.258,5.258,0,1,1-10.517,0H4.382A4.381,4.381,0,0,1,0,48.651ZM17.528,49.528h7.011V44.269H22.786a.876.876,0,1,1,0-1.753h1.753V39.011a1.751,1.751,0,0,0-1.753-1.753H19.281a1.751,1.751,0,0,0-1.753,1.753ZM5.258,37.258a1.751,1.751,0,0,0-1.753,1.753v3.506a1.751,1.751,0,0,0,1.753,1.753h7.011a1.751,1.751,0,0,0,1.753-1.753V39.011a1.751,1.751,0,0,0-1.753-1.753Zm5.258,18.4a2.629,2.629,0,1,0-2.629-2.629A2.629,2.629,0,0,0,10.517,55.663Z" transform="translate(0 -32)"/>
</svg>
