<svg xmlns="http://www.w3.org/2000/svg" width="32" height="14.386" viewBox="0 0 32 14.386">
  <g id="DVD_logo" transform="translate(-0.8 -0.764)">
    <path id="Path_84" data-name="Path 84" d="M19.023,3.255a21.948,21.948,0,0,0-2.086,2.88,15.5,15.5,0,0,0-.789-2.91s-.2-.576-.816-2.462H3.548l-.41,1.771h3.82c1.986,0,3.2.821,2.86,2.276-.366,1.584-2.1,2.26-3.946,2.26H5.182L6.071,3.2H2.984L1.673,8.857H6.057c3.3,0,6.427-1.771,6.991-4.046a4.4,4.4,0,0,0-.169-2.088.568.568,0,0,0-.028-.086c-.014-.015-.028-.116.028-.13.028-.015.084.043.084.057s.029.073.056.13l2.79,8.05,7.1-8.195,3-.015h.733c1.988,0,3.214.821,2.875,2.276-.366,1.584-2.113,2.26-3.96,2.26h-.7l.9-3.873H22.674L21.362,8.857h4.384c3.3,0,6.455-1.771,6.977-4.046S30.947.764,27.62.764H21.081c-1.733,2.088-2.058,2.492-2.058,2.492Z"/>
    <path id="Path_85" data-name="Path 85" d="M15.908,10.773C7.565,10.773.8,11.752.8,12.962S7.565,15.15,15.908,15.15c8.358,0,15.124-.979,15.124-2.188S24.266,10.773,15.908,10.773Zm-.535,2.967c-1.917,0-3.453-.332-3.453-.735s1.536-.734,3.453-.734,3.44.331,3.44.734S17.275,13.74,15.373,13.74Z"/>
  </g>
</svg>
