<svg xmlns="http://www.w3.org/2000/svg" width="18.074" height="34" viewBox="0 0 18.074 34">
  <g id="XMLID_681_" transform="translate(-7.963 0)">
    <g id="Group_159" data-name="Group 159">
      <g id="Group_158" data-name="Group 158">
        <path id="Subtraction_3" data-name="Subtraction 3" d="M-5081.5-4009h-10.918a3.582,3.582,0,0,1-3.577-3.578v-26.844a3.582,3.582,0,0,1,3.577-3.578h10.918a3.583,3.583,0,0,1,3.579,3.578v26.844A3.583,3.583,0,0,1-5081.5-4009Zm-13.411-20.174v16.6a2.5,2.5,0,0,0,2.493,2.494h10.918a2.476,2.476,0,0,0,1.763-.732,2.474,2.474,0,0,0,.729-1.762v-16.6Zm-.047-1.075v1h16v-1Zm2.54-11.667a2.5,2.5,0,0,0-2.493,2.494v9.164h15.9v-9.164a2.5,2.5,0,0,0-2.494-2.494Z" transform="translate(5103.963 4043)"/>
        <path id="Subtraction_2" data-name="Subtraction 2" d="M-5081-4011h-14a2,2,0,0,1-2-2v-28a2,2,0,0,1,2-2h14a2,2,0,0,1,2,2v28A2,2,0,0,1-5081-4011Zm-13.383-17.594v3.717h1.085v-3.717Zm-1.618-2.657v1h16v-1Zm1.618-5.306v3.716h1.085v-3.716Z" transform="translate(5105 4044)"/>
      </g>
    </g>
  </g>
</svg>
