<svg xmlns="http://www.w3.org/2000/svg" width="31.701" height="31.701" viewBox="0 0 31.701 31.701">
  <path id="Icon_material-gps-fixed" data-name="Icon material-gps-fixed" d="M17.351,11.587a5.764,5.764,0,1,0,5.764,5.764A5.762,5.762,0,0,0,17.351,11.587ZM30.233,15.91A12.96,12.96,0,0,0,18.792,4.468V1.5H15.91V4.468A12.96,12.96,0,0,0,4.468,15.91H1.5v2.882H4.468A12.96,12.96,0,0,0,15.91,30.233V33.2h2.882V30.233A12.96,12.96,0,0,0,30.233,18.792H33.2V15.91ZM17.351,27.437A10.087,10.087,0,1,1,27.437,17.351,10.079,10.079,0,0,1,17.351,27.437Z" transform="translate(-1.5 -1.5)"/>
</svg>
