<svg xmlns="http://www.w3.org/2000/svg" width="32.305" height="28.722" viewBox="0 0 32.305 28.722">
  <path id="Icon_awesome-leaf" data-name="Icon awesome-leaf" d="M30.637.544A.873.873,0,0,0,29.05.476a9.618,9.618,0,0,1-8.408,4.908H16.155A10.772,10.772,0,0,0,5.385,16.154,11.09,11.09,0,0,0,5.47,17.3c3.579-2.563,8.744-4.74,16.07-4.74a.9.9,0,1,1,0,1.795c-14.1,0-20.08,8.643-21.4,11.891a1.8,1.8,0,0,0,3.326,1.363,14.757,14.757,0,0,1,4.033-5.082,10.745,10.745,0,0,0,9.81,4.33c8.806-.639,15-8.537,15-18.207A20.4,20.4,0,0,0,30.637.544Z" transform="translate(-0.004 0.002)"/>
</svg>
