<svg xmlns="http://www.w3.org/2000/svg" width="19.856" height="28.882" viewBox="0 0 19.856 28.882">
  <path id="Icon_awesome-microphone" data-name="Icon awesome-microphone" d="M9.928,19.856a5.415,5.415,0,0,0,5.415-5.415V5.415a5.415,5.415,0,1,0-10.831,0v9.026A5.415,5.415,0,0,0,9.928,19.856Zm9.026-9.026h-.9a.9.9,0,0,0-.9.9v2.708a7.229,7.229,0,0,1-7.942,7.186,7.44,7.44,0,0,1-6.5-7.507V11.733a.9.9,0,0,0-.9-.9H.9a.9.9,0,0,0-.9.9V14A10.239,10.239,0,0,0,8.574,24.248v1.926H5.415a.9.9,0,0,0-.9.9v.9a.9.9,0,0,0,.9.9h9.026a.9.9,0,0,0,.9-.9v-.9a.9.9,0,0,0-.9-.9H11.282v-1.9a9.938,9.938,0,0,0,8.574-9.828V11.733A.9.9,0,0,0,18.954,10.831Z"/>
</svg>
