<svg xmlns="http://www.w3.org/2000/svg" width="27.904" height="29.762" viewBox="0 0 27.904 29.762">
  <path id="Icon_awesome-shield-alt" data-name="Icon awesome-shield-alt" d="M27.314,4.866,16.153.215a2.8,2.8,0,0,0-2.145,0L2.846,4.866A2.787,2.787,0,0,0,1.125,7.441C1.125,18.981,7.781,26.957,14,29.55a2.8,2.8,0,0,0,2.145,0c4.982-2.075,12.882-9.243,12.882-22.108A2.791,2.791,0,0,0,27.314,4.866ZM15.083,25.945,15.077,3.8,25.3,8.058c-.192,8.8-4.773,15.179-10.22,17.888Z" transform="translate(-1.125 -0.002)"/>
</svg>
