<svg xmlns="http://www.w3.org/2000/svg" width="27.206" height="31.09" viewBox="0 0 27.206 31.09">
  <path id="Icon_awesome-snowflake" data-name="Icon awesome-snowflake" d="M26.736,20.962l-2.052-1.184,1.579-.425a.939.939,0,0,0,.662-1.148l-.243-.9a.939.939,0,0,0-1.148-.662l-4.3,1.154-3.88-2.247L21.228,13.3l4.3,1.154a.939.939,0,0,0,1.148-.662l.243-.9a.939.939,0,0,0-.662-1.148l-1.579-.425,2.052-1.184a.942.942,0,0,0,.346-1.281l-.941-1.627a.942.942,0,0,0-1.281-.346L22.8,8.064l.425-1.579a.939.939,0,0,0-.662-1.148l-.9-.243a.939.939,0,0,0-1.148.662l-1.154,4.3-3.813,2.2V7.548l3.261-3.261a.975.975,0,0,0,0-1.372l-.686-.686a.975.975,0,0,0-1.372,0l-1.2,1.2V.972A.974.974,0,0,0,14.573,0H12.63a.974.974,0,0,0-.972.972V3.425l-1.2-1.2a.975.975,0,0,0-1.372,0L8.4,2.915a.964.964,0,0,0,0,1.372l3.261,3.261v4.706l-3.813-2.2-1.154-4.3a.939.939,0,0,0-1.148-.662l-.9.243a.939.939,0,0,0-.662,1.148L4.4,8.064,2.35,6.88a.937.937,0,0,0-1.281.346L.127,8.847a.937.937,0,0,0,.346,1.281l2.052,1.184-1.579.425a.942.942,0,0,0-.668,1.154l.243.9a.939.939,0,0,0,1.148.662l4.3-1.154,3.874,2.241L5.969,17.786l-4.3-1.154a.939.939,0,0,0-1.148.662l-.243.9a.939.939,0,0,0,.662,1.148l1.579.425L.467,20.962a.942.942,0,0,0-.346,1.281l.941,1.627a.942.942,0,0,0,1.281.346L4.4,23.032l-.425,1.579a.939.939,0,0,0,.662,1.148l.9.243a.939.939,0,0,0,1.148-.662l1.154-4.3,3.813-2.2v4.706L8.392,26.809a.964.964,0,0,0,0,1.372l.686.686a.975.975,0,0,0,1.372,0l1.2-1.2v2.447a.974.974,0,0,0,.972.972h1.943a.974.974,0,0,0,.972-.972V27.665l1.2,1.2a.975.975,0,0,0,1.372,0l.686-.686a.975.975,0,0,0,0-1.372l-3.243-3.261V18.836l3.813,2.2,1.154,4.3A.939.939,0,0,0,21.66,26l.9-.243a.939.939,0,0,0,.662-1.148L22.8,23.026l2.052,1.184a.937.937,0,0,0,1.281-.346l.941-1.627a.928.928,0,0,0-.34-1.275Z" transform="translate(0.002)"/>
</svg>
