<svg xmlns="http://www.w3.org/2000/svg" width="27.556" height="24.494" viewBox="0 0 27.556 24.494">
  <path id="Icon_awesome-toilet-paper" data-name="Icon awesome-toilet-paper" d="M6.123,0C3.587,0,1.531,4.112,1.531,9.185v8.232c0,1.967-.469,3-1.491,6.069a.766.766,0,0,0,.726,1.007H14.2a1.531,1.531,0,0,0,1.452-1.047,17.016,17.016,0,0,0,1.182-6.03V9.185c0-4,1.132-7.344,2.891-9.185ZM4.593,10.716a.765.765,0,1,1,.765-.765A.765.765,0,0,1,4.593,10.716Zm3.062,0a.765.765,0,1,1,.765-.765A.765.765,0,0,1,7.654,10.716Zm3.062,0a.765.765,0,1,1,.765-.765A.765.765,0,0,1,10.716,10.716Zm3.062,0a.765.765,0,1,1,.765-.765A.765.765,0,0,1,13.778,10.716ZM22.963,0C20.426,0,18.37,4.112,18.37,9.185s2.056,9.185,4.593,9.185,4.593-4.112,4.593-9.185S25.5,0,22.963,0Zm0,12.247c-.845,0-1.531-1.371-1.531-3.062s.686-3.062,1.531-3.062,1.531,1.371,1.531,3.062S23.808,12.247,22.963,12.247Z" transform="translate(0)"/>
</svg>
