<svg xmlns="http://www.w3.org/2000/svg" width="19.807" height="32.423" viewBox="0 0 19.807 32.423">
  <path id="Icon_awesome-usb" data-name="Icon awesome-usb" d="M32.423,14.127a.425.425,0,0,1-.227.379l-4.5,2.7a.447.447,0,0,1-.227.071.472.472,0,0,1-.227-.056.454.454,0,0,1-.227-.394v-1.8H14.945c1.279,2,2.047,5.4,3.518,5.4h1.349V19.08a.444.444,0,0,1,.45-.45h4.5a.444.444,0,0,1,.45.45v4.5a.444.444,0,0,1-.45.45h-4.5a.444.444,0,0,1-.45-.45V22.234H18.463c-3.811,0-4.1-7.2-6.3-7.2H7.091a3.606,3.606,0,1,1,0-1.8c1.976,0,2.219.48,3.77-3.053,2.027-4.5,2.936-4.15,5.5-4.15a2.7,2.7,0,1,1,0,1.809H14.859c-1.471,0-2.239,3.407-3.518,5.4H27.015v-1.8a.454.454,0,0,1,.227-.394.424.424,0,0,1,.45.015l4.5,2.7a.386.386,0,0,1,.227.364Z" transform="translate(-4.226 32.423) rotate(-90)"/>
</svg>
