<svg xmlns="http://www.w3.org/2000/svg" width="33.111" height="23.178" viewBox="0 0 33.111 23.178">
  <path id="Icon_awesome-wifi" data-name="Icon awesome-wifi" d="M32.848,8.607a24.055,24.055,0,0,0-32.585,0A.822.822,0,0,0,.245,9.8l1.771,1.757a.84.84,0,0,0,1.159.02,19.85,19.85,0,0,1,26.761,0,.841.841,0,0,0,1.159-.02L32.867,9.8a.823.823,0,0,0-.019-1.189Zm-16.292,10.2a3.311,3.311,0,1,0,3.311,3.311A3.311,3.311,0,0,0,16.556,18.806Zm10.485-4.325a15.883,15.883,0,0,0-20.971,0,.818.818,0,0,0-.029,1.2l1.782,1.759a.845.845,0,0,0,1.141.041,11.652,11.652,0,0,1,15.184,0,.844.844,0,0,0,1.141-.041l1.782-1.759A.818.818,0,0,0,27.041,14.481Z" transform="translate(0 -2.25)"/>
</svg>
