<svg xmlns="http://www.w3.org/2000/svg" width="94.286" height="66" viewBox="0 0 94.286 66">
  <path id="Icon_awesome-car-side" data-name="Icon awesome-car-side" d="M80.143,25.821H77.786L61.76,5.789A9.432,9.432,0,0,0,54.4,2.25H22.883A9.428,9.428,0,0,0,14.13,8.177L7.071,26.154A9.406,9.406,0,0,0,0,35.25v16.5a2.356,2.356,0,0,0,2.357,2.357H9.429a14.143,14.143,0,0,0,28.286,0H56.571a14.143,14.143,0,0,0,28.286,0h7.071a2.356,2.356,0,0,0,2.357-2.357V39.964A14.143,14.143,0,0,0,80.143,25.821ZM23.571,61.179a7.071,7.071,0,1,1,7.071-7.071A7.079,7.079,0,0,1,23.571,61.179ZM34.179,25.821H17.226l5.657-14.143h11.3Zm7.071,0V11.679H54.4L65.711,25.821ZM70.714,61.179a7.071,7.071,0,1,1,7.071-7.071A7.079,7.079,0,0,1,70.714,61.179Z" transform="translate(0 -2.25)" fill="#bb8141"/>
</svg>
